# xmcd
# Copyright (C) 1995-1998 Ti Kan
#
# Track frame offsets:
#       150
#       14969
#       32074
#       47194
#       63316
#       79319
#       94035
#       108306
#       122323
#       136289
#       149700
#       166338
#
# Disc length: 2428 seconds
#
# Revision: 0
# Processed by: cddbd v1.5.2PL0 Copyright (c) Steve Scherf et al.
# Submitted via: CD-Transfer v1.0
#
DISCID=a8097a0c
DTITLE=Liane - 
DYEAR=07
DGENRE=
TTITLE0=Verliebtes Herz Gesucht
TTITLE1=1001 Nacht
TTITLE2=Lass Die Sterne Am Himmel
TTITLE3=Die Nächte Von Napoli
TTITLE4=Licht Und Schatten
TTITLE5=Ich Will Leben
TTITLE6=Fiesta D´amore
TTITLE7=Ich Lebe Meine Träume
TTITLE8=Auf Den Ersten Blick Ein Gentleman
TTITLE9=Michele
TTITLE10=Rosengarten Du Wunderberg
TTITLE11=Lass Uns Twisten
EXTD=
EXTT0=
EXTT1=
EXTT2=
EXTT3=
EXTT4=
EXTT5=
EXTT6=
EXTT7=
EXTT8=
EXTT9=
EXTT10=
EXTT11=
PLAYORDER=
